<?xml version="1.0" standalone="no"?>
<!DOCTYPE svg PUBLIC "-//W3C//DTD SVG 20010904//EN"
 "http://www.w3.org/TR/2001/REC-SVG-20010904/DTD/svg10.dtd">
<svg version="1.0" xmlns="http://www.w3.org/2000/svg"
 width="225.000000pt" height="225.000000pt" viewBox="0 0 225.000000 225.000000"
 preserveAspectRatio="xMidYMid meet">
<metadata>
Created by potrace 1.14, written by Peter Selinger 2001-2017
</metadata>
<g transform="translate(0.000000,225.000000) scale(0.100000,-0.100000)"
fill="#000000" stroke="none">
<path d="M0 1125 l0 -1125 1125 0 1125 0 0 1125 0 1125 -1125 0 -1125 0 0
-1125z m1655 532 c12 -75 5 -88 -58 -124 l-58 -32 -31 35 c-17 19 -49 45 -72
56 -45 23 -153 35 -176 19 -12 -8 -16 -46 -20 -198 l-5 -187 -90 -73 c-49 -40
-93 -73 -97 -73 -4 0 -8 117 -8 260 0 293 4 280 -82 280 -134 -2 -216 -84
-257 -258 -18 -75 -19 -77 -51 -80 -18 -2 -36 0 -41 5 -5 6 12 361 21 411 0 1
229 2 509 2 l510 0 6 -43z m-4 -268 c-39 -47 -64 -67 -97 -79 -46 -15 -452
-335 -453 -356 -1 -5 5 -18 11 -27 12 -15 18 -13 63 23 28 22 53 40 58 40 4 0
7 -76 7 -169 0 -136 3 -171 15 -181 8 -6 50 -14 95 -17 l80 -6 0 -33 0 -34
-290 0 -290 0 0 34 0 33 80 6 c45 3 87 11 95 17 11 9 15 36 15 103 0 80 3 93
22 115 l23 23 -30 -11 c-42 -16 -65 -39 -85 -83 -20 -45 -249 -237 -281 -237
-46 0 -118 60 -135 112 -7 25 -10 22 158 159 53 43 105 79 114 79 40 0 105 42
124 80 25 50 33 54 69 36 29 -15 29 -15 118 56 247 199 351 290 357 313 4 17
29 37 84 68 l77 44 24 -23 24 -22 -52 -63z"/>
</g>
</svg>
